<?xml version="1.0" encoding="utf-8"?>
<!-- Generator: Adobe Illustrator 27.5.0, SVG Export Plug-In . SVG Version: 6.00 Build 0)  -->
<svg version="1.1" xmlns="http://www.w3.org/2000/svg" xmlns:xlink="http://www.w3.org/1999/xlink" x="0px" y="0px"
	 viewBox="0 0 500 500" style="enable-background:new 0 0 500 500;" xml:space="preserve">
<g id="BACKGROUND">
	<g id="layer6">
		<circle id="path18415" style="fill:#E1F3FF;" cx="250" cy="250" r="222.275"/>
	</g>
</g>
<g id="OBJECTS">
	<g id="layer5">
		<path id="path10279" style="fill:#1F1439;" d="M417.546,307.441c-22.6-0.166-57.785,4.9-79.357,10.125l-0.086,8.324
			c26.995-8.286,75.119-13.094,100.03-9.45c31.075,4.544,35.919,12.191,9.385,23.092l-233.88,94.757l5.086,10.872l236.179-98.27
			c33.354-13.903,30.191-30.159-4.819-36.681C440.507,308.427,429.372,307.528,417.546,307.441L417.546,307.441z"/>
		<path id="path3497" style="fill:#270944;" d="M215.447,433.973c3.11,0,5.633,2.774,5.633,6.197c0,3.424-2.522,6.198-5.633,6.198
			c-3.111,0-5.633-2.774-5.633-6.198C209.814,436.747,212.335,433.973,215.447,433.973z"/>
		<path id="path5966" style="fill:#604D8D;" d="M162.972,106.839l-106.31,15.562c0,11.77,4.346,77.893,4.346,160.824
			c0,82.931-4.239,117.998-4.239,117.998l0.017-0.002c-0.875,4.218,3.565,8.194,13.608,10.87
			c19.761,5.264,52.658,3.268,72.999-4.409l199.543-75.304l-68.646-13.873l-108.647,38.392L162.972,106.839z"/>
		<path id="path15282" style="opacity:0.2173;fill:#B6AFC6;enable-background:new    ;" d="M77.488,119.354l-20.825,3.048
			c0,11.77,4.346,77.893,4.346,160.824c0,82.931-4.239,117.998-4.239,117.998l0.016-0.002c-0.862,4.155,3.449,8.077,13.185,10.75
			c4.37-25.021,10.689-70.837,14.267-141.274C87.86,199.337,82.261,148.038,77.488,119.354L77.488,119.354z"/>
		<path id="rect2681" style="fill:#4F3D7A;" d="M342.936,80.469l-191.969,42.004l-16.321-0.587v4.159V410.44
			c3.075-0.81,5.994-1.723,8.689-2.736l0.059-0.022l16.576-6.256l182.967-69.049V80.469z"/>
		<path id="path18139" style="opacity:0.2173;fill:#D7D1E6;enable-background:new    ;" d="M330.323,83.228l-179.355,39.244
			l-16.322-0.586v4.158v152.908c13.762-125.737,32.442-138.67,96.51-159.752c61.715-20.308,83.248-20.129,93.209-28.123
			C327.202,88.797,329.082,86.025,330.323,83.228z"/>
		<path id="path17521" style="opacity:0.2788;fill:#271A47;enable-background:new    ;" d="M342.936,80.468l-8.012,1.753
			c11.587,99.874-20.563,183.942-79.446,205.873c-62.397,23.241-107.216,28.194-120.833,62.903v59.442
			c3.075-0.81,5.995-1.723,8.689-2.736l0.06-0.023l16.576-6.256l182.966-69.048V80.468z"/>
		<path id="path3687" style="fill:#7E68B1;" d="M72.886,115.334c-20.449,4.208-21.886,9.67-2.491,12.206
			c19.761,2.583,52.656,1.041,72.998-3.41c66.514-14.554,137.596-28.895,199.543-43.661l-68.645-6.578L72.886,115.334z"/>
		<path id="path3689" style="fill:#3D265C;" d="M75.826,115.7c-18.725,3.863-19.969,8.834-2.181,11.149
			c18.096,2.355,47.981,0.955,66.616-3.111l199.635-43.561l-62.735-6.012L75.826,115.7z"/>
		<path id="path3691" style="fill:#270944;" d="M80.073,124.369l18.273-3.864c1.89-0.399,4.867-0.538,6.684-0.311
			c1.819,0.228,1.77,0.734-0.118,1.136l-18.265,3.884c-1.931,0.411-4.957,0.552-6.78,0.316
			C78.047,125.295,78.142,124.777,80.073,124.369L80.073,124.369z"/>
		<path id="path3693" style="fill:#270944;" d="M135.074,112.739l29.801-6.301c1.755-0.371,4.615-0.502,6.421-0.295
			c1.808,0.208,1.856,0.675,0.104,1.048l-29.781,6.333c-1.816,0.386-4.745,0.522-6.56,0.303
			C133.246,113.609,133.256,113.123,135.074,112.739L135.074,112.739z"/>
		<path id="path3695" style="fill:#270944;" d="M174.618,104.377l28.514-6.029c1.68-0.355,4.474-0.483,6.271-0.286
			c1.799,0.197,1.901,0.643,0.224,0.999l-28.491,6.059c-1.737,0.37-4.596,0.5-6.402,0.294
			C172.928,105.208,172.88,104.745,174.618,104.377L174.618,104.377z"/>
		<path id="path3697" style="fill:#270944;" d="M212.681,96.329l27.302-5.773c1.608-0.34,4.338-0.463,6.125-0.277
			c1.79,0.187,1.941,0.612,0.335,0.954l-27.276,5.8c-1.662,0.354-4.453,0.481-6.252,0.285
			C211.118,97.122,211.017,96.681,212.681,96.329L212.681,96.329z"/>
		<path id="path3699" style="fill:#270944;" d="M250.853,88.257l26.112-5.521c1.539-0.326,4.204-0.446,5.98-0.27
			c1.779,0.177,1.978,0.582,0.44,0.909l-26.084,5.547c-1.589,0.338-4.313,0.461-6.102,0.276
			C249.415,89.014,249.262,88.594,250.853,88.257L250.853,88.257z"/>
		<path id="path3701" style="fill:#270944;" d="M287.24,80.564l10.05-2.125c1.501-0.317,4.131-0.436,5.901-0.265
			c1.772,0.171,1.996,0.565,0.496,0.884l-10.037,2.135c-1.521,0.323-4.181,0.443-5.959,0.267
			C285.916,81.286,285.717,80.885,287.24,80.564z"/>
		<path id="path3703" style="fill:#270944;" d="M81.005,120.257l18.044-3.777c1.865-0.391,4.808-0.527,6.603-0.306
			c1.798,0.222,1.749,0.716-0.115,1.108l-18.035,3.797c-1.906,0.401-4.896,0.54-6.696,0.311
			C79.006,121.162,79.099,120.656,81.005,120.257L81.005,120.257z"/>
		<path id="path3705" style="fill:#270944;" d="M123.533,111.355l29.835-6.246c1.757-0.368,4.605-0.498,6.391-0.293
			c1.789,0.206,1.82,0.668,0.065,1.038l-29.816,6.277c-1.819,0.383-4.733,0.518-6.528,0.301
			C121.687,112.216,121.714,111.735,123.533,111.355L123.533,111.355z"/>
		<path id="path3707" style="fill:#270944;" d="M163.124,103.066l28.553-5.977c1.682-0.352,4.463-0.479,6.241-0.284
			c1.781,0.195,1.866,0.636,0.186,0.99l-28.531,6.006c-1.739,0.366-4.584,0.497-6.373,0.292
			C161.414,103.889,161.383,103.431,163.124,103.066L163.124,103.066z"/>
		<path id="path3709" style="fill:#270944;" d="M201.24,95.088l27.346-5.725c1.611-0.337,4.328-0.46,6.098-0.275
			c1.771,0.185,1.906,0.605,0.297,0.945l-27.32,5.752c-1.666,0.351-4.443,0.476-6.224,0.283
			C199.658,95.874,199.573,95.437,201.24,95.088L201.24,95.088z"/>
		<path id="path3711" style="fill:#270944;" d="M239.474,87.084l26.159-5.476c1.542-0.323,4.195-0.442,5.954-0.268
			c1.762,0.175,1.944,0.576,0.404,0.901l-26.133,5.501c-1.592,0.335-4.304,0.458-6.074,0.274
			C238.016,87.834,237.88,87.418,239.474,87.084L239.474,87.084z"/>
		<path id="path3713" style="fill:#270944;" d="M275.928,79.453l10.069-2.108c1.504-0.315,4.123-0.432,5.876-0.263
			c1.755,0.17,1.963,0.56,0.46,0.877l-10.059,2.118c-1.523,0.321-4.172,0.439-5.933,0.266
			C274.585,80.169,274.403,79.773,275.928,79.453L275.928,79.453z"/>
		<path id="path3715" style="fill:#270944;" d="M104.293,123.206l18.012-3.848c1.862-0.398,4.833-0.536,6.667-0.31
			c1.838,0.227,1.824,0.73-0.037,1.13l-18.001,3.868c-1.902,0.409-4.922,0.549-6.763,0.315
			C102.332,124.128,102.39,123.612,104.293,123.206L104.293,123.206z"/>
		<path id="path3717" style="fill:#270944;" d="M146.74,114.138l29.765-6.358c1.752-0.374,4.627-0.507,6.451-0.297
			c1.827,0.21,1.893,0.682,0.143,1.058l-29.743,6.391c-1.814,0.39-4.757,0.526-6.592,0.305
			C144.932,115.016,144.924,114.526,146.74,114.138L146.74,114.138z"/>
		<path id="path3719" style="fill:#270944;" d="M186.235,105.702l28.473-6.083c1.677-0.358,4.483-0.486,6.298-0.288
			c1.818,0.199,1.938,0.648,0.263,1.009l-28.447,6.112c-1.735,0.373-4.607,0.505-6.434,0.296
			C184.564,106.54,184.498,106.072,186.235,105.702L186.235,105.702z"/>
		<path id="path3721" style="fill:#270944;" d="M224.24,97.583l27.256-5.822c1.605-0.343,4.348-0.468,6.152-0.279
			c1.809,0.188,1.977,0.617,0.373,0.962l-27.228,5.85c-1.66,0.357-4.464,0.485-6.281,0.287
			C222.698,98.383,222.579,97.938,224.24,97.583L224.24,97.583z"/>
		<path id="path3723" style="fill:#270944;" d="M262.347,89.442l26.062-5.567c1.536-0.328,4.213-0.449,6.007-0.271
			c1.798,0.178,2.013,0.587,0.479,0.916l-26.032,5.593c-1.587,0.341-4.322,0.465-6.129,0.278
			C260.929,90.206,260.759,89.782,262.347,89.442L262.347,89.442z"/>
		<path id="path3725" style="fill:#270944;" d="M298.663,81.685l10.028-2.143c1.498-0.32,4.14-0.439,5.927-0.266
			c1.79,0.173,2.03,0.57,0.534,0.892l-10.017,2.152c-1.517,0.326-4.188,0.446-5.984,0.27
			C297.36,82.413,297.144,82.009,298.663,81.685L298.663,81.685z"/>
		<path id="path3727" style="fill:#270944;" d="M128.343,122.068l17.753-3.832c1.836-0.396,4.8-0.534,6.652-0.309
			c1.855,0.226,1.878,0.727,0.044,1.125l-17.741,3.852c-1.875,0.407-4.887,0.547-6.747,0.314
			C126.447,122.987,126.467,122.474,128.343,122.068L128.343,122.068z"/>
		<path id="path3729" style="fill:#270944;" d="M158.532,115.553l29.725-6.415c1.75-0.378,4.638-0.511,6.482-0.299
			c1.847,0.212,1.931,0.688,0.183,1.068l-29.702,6.449c-1.813,0.394-4.77,0.531-6.624,0.307
			C156.743,116.44,156.718,115.944,158.532,115.553L158.532,115.553z"/>
		<path id="path3731" style="fill:#270944;" d="M197.974,107.04l28.428-6.136c1.674-0.361,4.494-0.491,6.328-0.29
			c1.837,0.201,1.975,0.655,0.302,1.018l-28.402,6.166c-1.732,0.376-4.617,0.509-6.464,0.298
			C196.323,107.886,196.24,107.414,197.974,107.04L197.974,107.04z"/>
		<path id="path3733" style="fill:#270944;" d="M235.92,98.85l27.207-5.872c1.602-0.346,4.356-0.471,6.181-0.281
			c1.826,0.19,2.013,0.624,0.412,0.971l-27.18,5.901c-1.657,0.36-4.474,0.489-6.309,0.288
			C234.397,99.657,234.261,99.208,235.92,98.85L235.92,98.85z"/>
		<path id="path3735" style="fill:#270944;" d="M273.957,90.64l26.01-5.614c1.533-0.331,4.222-0.452,6.033-0.272
			c1.815,0.18,2.048,0.592,0.517,0.925l-25.979,5.64c-1.583,0.344-4.332,0.469-6.157,0.28
			C272.559,91.41,272.372,90.982,273.957,90.64L273.957,90.64z"/>
		<path id="path3737" style="fill:#270944;" d="M310.199,82.817l10.007-2.16c1.495-0.323,4.147-0.442,5.953-0.268
			c1.808,0.175,2.065,0.576,0.572,0.9l-9.994,2.17c-1.515,0.329-4.198,0.45-6.011,0.271
			C308.916,83.552,308.684,83.145,310.199,82.817L310.199,82.817z"/>
		<path id="path3739" style="fill:#270944;" d="M81.805,116.267l17.822-3.694c1.843-0.382,4.75-0.516,6.524-0.3
			c1.777,0.216,1.729,0.698-0.112,1.082l-17.813,3.713c-1.882,0.392-4.835,0.529-6.616,0.306
			C79.832,117.151,79.922,116.657,81.805,116.267L81.805,116.267z"/>
		<path id="path3741" style="fill:#270944;" d="M112.115,109.984l29.866-6.19c1.759-0.364,4.593-0.494,6.36-0.29
			c1.77,0.204,1.785,0.662,0.028,1.028l-29.85,6.221c-1.82,0.379-4.721,0.513-6.497,0.299
			C110.25,110.838,110.294,110.362,112.115,109.984L112.115,109.984z"/>
		<path id="path3743" style="fill:#270944;" d="M151.749,101.77l28.59-5.926c1.684-0.349,4.452-0.475,6.212-0.282
			c1.763,0.193,1.832,0.63,0.149,0.981l-28.569,5.955c-1.742,0.363-4.574,0.492-6.344,0.29
			C150.021,102.585,150.006,102.131,151.749,101.77L151.749,101.77z"/>
		<path id="path3745" style="fill:#270944;" d="M189.915,93.859l27.386-5.677c1.614-0.335,4.319-0.457,6.071-0.274
			c1.754,0.183,1.872,0.601,0.26,0.937l-27.363,5.703c-1.668,0.348-4.433,0.473-6.195,0.281
			C188.315,94.638,188.246,94.205,189.915,93.859L189.915,93.859z"/>
		<path id="path3747" style="fill:#270944;" d="M228.208,85.922l26.204-5.432c1.545-0.32,4.187-0.438,5.929-0.266
			c1.744,0.173,1.91,0.571,0.367,0.893l-26.179,5.456c-1.596,0.332-4.295,0.454-6.048,0.273
			C226.732,86.666,226.612,86.253,228.208,85.922z"/>
		<path id="path3749" style="fill:#270944;" d="M264.726,78.353l10.089-2.091c1.507-0.313,4.114-0.429,5.851-0.261
			c1.738,0.168,1.93,0.555,0.424,0.869l-10.077,2.101c-1.527,0.318-4.164,0.437-5.907,0.265
			C263.365,79.064,263.198,78.67,264.726,78.353L264.726,78.353z"/>
		<path id="rect2765" style="fill:#5ADBD0;" d="M326.135,84.145l5.771-1.263v253.659l-5.771,2.179V84.145z"/>
		<path id="rect2871" style="fill:#392A5E;" d="M140.243,389.375l25.645-9.443v10.326l-25.645,9.593V389.375z"/>
		<path id="rect2789" style="fill:#392A5E;" d="M140.243,377.523l19.807-7.163v7.928l-19.807,7.251V377.523z"/>
		<path id="path3068" style="fill:#5ADBD0;" d="M309.375,203.133c0,49.521-31.798,100.642-72.783,114.789
			c-43.068,14.865-79.622-16.434-79.622-70.607c0-54.174,36.554-106.666,79.622-116.771
			C277.577,120.928,309.375,153.612,309.375,203.133z"/>
		<path id="circle3150" style="fill:#392A5E;" d="M303.622,204.801c0,45.607-29.344,92.573-67.03,105.41
			c-39.441,13.434-72.788-15.353-72.788-64.878c0-49.523,33.347-97.645,72.788-107.079
			C274.279,129.241,303.622,159.194,303.622,204.801z"/>
		<path id="circle3152" style="fill:#5ADBD0;" d="M263.511,216.429c0,18.316-11.945,36.864-26.919,41.503
			c-15.243,4.722-27.803-6.723-27.803-25.639c0-18.917,12.559-37.643,27.803-41.759
			C251.566,186.491,263.511,198.113,263.511,216.429z"/>
		<path id="path6181" style="fill:#5ADBD0;" d="M95.74,128.782c0,0,6.518,56.411,6.726,153.39
			c0.207,96.809-3.644,132.678-3.656,132.803c2.286-0.026,4.584-0.079,6.897-0.205c0.067-0.639,3.846-36.487,3.64-132.598
			c-0.208-96.979-6.723-153.39-6.723-153.39H95.74z"/>
		<path id="rect7676" style="fill:#5ADBD0;" d="M90.806,406.152c0.46-4.361,0.681-8.748,0.687-13.141
			c0.001-1.319,1.059-2.399,2.396-2.421c1.338-0.022,2.435,1.061,2.433,2.427c-0.007,4.551-0.236,9.103-0.711,13.639
			c-0.143,1.362-1.351,2.323-2.679,2.157C91.603,408.647,90.668,407.462,90.806,406.152z"/>
		<path id="rect7594" style="fill:#5ADBD0;" d="M92.07,378.776c0.371-4.39,0.549-8.802,0.552-13.214
			c0.001-1.324,1.062-2.406,2.4-2.424c1.338-0.019,2.434,1.063,2.433,2.427c-0.001,4.54-0.184,9.087-0.568,13.619
			c-0.115,1.36-1.301,2.347-2.633,2.212C92.922,381.262,91.958,380.095,92.07,378.776z"/>
		<path id="path12558" style="fill:#FFFFFF;" d="M202.149,427.981l29.826,7.745v16.765l-29.826-7.966V427.981z"/>
		<path id="path12560" style="fill:#FFFFFF;" d="M175.318,438.965v16.803l26.831-11.242v-16.544L175.318,438.965z"/>
		<path id="path12562" style="fill:#FFFFFF;" d="M175.318,455.768l29.936,8.244l26.721-11.521l-29.826-7.966L175.318,455.768z"/>
		<path id="path12564" style="fill:#846DBF;" d="M175.318,438.965l29.936,8.017l26.721-11.255l-29.826-7.745L175.318,438.965z"/>
		<path id="path12566" style="fill:#3A2668;" d="M205.254,446.981v17.03l26.721-11.521v-16.765L205.254,446.981z"/>
		<path id="path12568" style="fill:#271453;" d="M175.318,438.965l29.936,8.017v17.03l-29.936-8.244V438.965z"/>
		<path id="path12099" style="fill:#FFFFFF;" d="M177.192,441.369l24.536,6.572v14.212l-24.536-6.741V441.369z"/>
		<path id="path12101" style="fill:#FFFFFF;" d="M162.492,447.395v14.172l14.699-6.154v-14.043L162.492,447.395z"/>
		<path id="path12103" style="fill:#FFFFFF;" d="M162.492,461.566l24.586,6.88l14.649-6.293l-24.536-6.741L162.492,461.566z"/>
		<path id="path12105" style="fill:#846DBF;" d="M162.492,447.395l24.586,6.707l14.649-6.16l-24.536-6.572L162.492,447.395z"/>
		<path id="path12107" style="fill:#3A2668;" d="M187.078,454.102v14.345l14.649-6.293v-14.212L187.078,454.102z"/>
		<path id="path12109" style="fill:#745DB0;" d="M162.492,447.395l24.586,6.707v14.345l-24.586-6.88V447.395z"/>
		<path id="path12119" style="fill:#C3B6E4;" d="M164.358,449.833v10.324l20.859,5.839v-10.479L164.358,449.833z"/>
		<path id="path4818" style="fill:#3D2B68;" d="M164.358,460.157l19.114-5.116l1.724,0.461l0.021,10.494L164.358,460.157z"/>
	</g>
</g>
</svg>
